<svg width="211" height="34" viewBox="0 0 211 34" fill="none" xmlns="http://www.w3.org/2000/svg">
<path d="M173.613 33.32H160.813C160.386 33.32 160.173 33.0533 160.173 32.52V1.88C160.173 1.29333 160.386 1 160.813 1H173.613C174.04 1 174.253 1.26667 174.253 1.8V2.44C174.253 2.70667 174.173 2.89333 174.013 3C173.853 3.10667 173.72 3.16 173.613 3.16H162.013V15.72H172.573C172.68 15.72 172.813 15.8 172.973 15.96C173.133 16.0667 173.213 16.28 173.213 16.6V17.16C173.213 17.6933 173 17.96 172.573 17.96H162.013V31.16H173.613C174.04 31.16 174.253 31.4 174.253 31.88V32.52C174.253 32.7867 174.173 33 174.013 33.16C173.853 33.2667 173.72 33.32 173.613 33.32Z" fill="#C8D0DA"/>
<path d="M152.63 33.32H136.39C136.283 33.32 136.15 33.2667 135.99 33.16C135.83 33 135.75 32.7867 135.75 32.52V31.64C135.75 31.4267 135.803 31.1867 135.91 30.92L150.55 3.16H136.87C136.39 3.16 136.15 2.92 136.15 2.44V1.8C136.15 1.26667 136.39 1 136.87 1H152.15C152.63 1 152.87 1.26667 152.87 1.8V2.68C152.87 2.78667 152.843 2.92 152.79 3.08C152.79 3.24 152.763 3.34666 152.71 3.4L138.07 31.16H152.63C153.11 31.16 153.35 31.4 153.35 31.88V32.52C153.35 32.8933 153.27 33.1333 153.11 33.24C153.003 33.2933 152.843 33.32 152.63 33.32Z" fill="#C8D0DA"/>
<path d="M129.087 33.32H128.447C128.073 33.32 127.887 33.0267 127.887 32.44V1.88C127.887 1.45333 127.913 1.21333 127.967 1.16C128.073 1.05333 128.233 1 128.447 1H129.087C129.3 1 129.46 1.05333 129.567 1.16C129.673 1.21333 129.727 1.45333 129.727 1.88V32.44C129.727 32.8667 129.673 33.1333 129.567 33.24C129.46 33.2933 129.3 33.32 129.087 33.32Z" fill="#C8D0DA"/>
<path d="M119.53 33.32H118.89C118.41 33.32 118.17 33.0533 118.17 32.52V5.72L109.77 25.88C109.61 26.2533 109.29 26.44 108.81 26.44H108.09C107.663 26.44 107.37 26.2533 107.21 25.88L98.7299 5.48V32.52C98.7299 33.0533 98.5166 33.32 98.0899 33.32H97.4499C96.9166 33.32 96.6499 33.0533 96.6499 32.52V1.88C96.6499 1.29333 96.9166 1 97.4499 1H98.6499C98.9166 1 99.1299 1.13333 99.2899 1.4L108.49 23.48L117.53 1.48C117.69 1.16 117.93 1 118.25 1H119.53C119.957 1 120.17 1.29333 120.17 1.88V32.52C120.17 33.0533 119.957 33.32 119.53 33.32Z" fill="#C8D0DA"/>
<path d="M82.6919 33.32H77.2519C75.3852 33.32 73.8919 32.7333 72.7719 31.56C71.7052 30.3867 71.1719 28.6 71.1719 26.2V8.12C71.1719 5.88 71.7052 4.14667 72.7719 2.92C73.8919 1.64 75.3852 1 77.2519 1H82.6919C84.5585 1 86.0519 1.64 87.1719 2.92C88.2919 4.2 88.8519 5.93333 88.8519 8.12V26.2C88.8519 28.6 88.3185 30.3867 87.2519 31.56C86.1852 32.7333 84.6652 33.32 82.6919 33.32ZM86.8519 8.12C86.8519 6.57333 86.5052 5.37333 85.8119 4.52C85.1185 3.61333 84.0785 3.16 82.6919 3.16H77.2519C75.8652 3.16 74.8252 3.61333 74.1319 4.52C73.4385 5.37333 73.0919 6.57333 73.0919 8.12V26.12C73.0919 27.6667 73.4385 28.8933 74.1319 29.8C74.8252 30.7067 75.8652 31.16 77.2519 31.16H82.6919C84.0785 31.16 85.1185 30.7067 85.8119 29.8C86.5052 28.8933 86.8519 27.6667 86.8519 26.12V8.12Z" fill="#C8D0DA"/>
<path d="M64.9487 3.16H58.2287V32.52C58.2287 32.68 58.1487 32.8667 57.9887 33.08C57.882 33.24 57.722 33.32 57.5087 33.32H57.0287C56.8153 33.32 56.6287 33.24 56.4687 33.08C56.362 32.8667 56.3087 32.68 56.3087 32.52V3.16H49.5887C49.4287 3.16 49.2687 3.10667 49.1087 3C48.9487 2.89333 48.8687 2.70667 48.8687 2.44V1.8C48.8687 1.26667 49.1087 1 49.5887 1H64.9487C65.3753 1 65.5887 1.26667 65.5887 1.8V2.44C65.5887 2.92 65.3753 3.16 64.9487 3.16Z" fill="#C8D0DA"/>
<path d="M37.0778 33.32H31.3978C29.4245 33.32 27.9045 32.7333 26.8378 31.56C25.7711 30.3867 25.2378 28.6 25.2378 26.2V8.12C25.2378 5.93333 25.7978 4.2 26.9178 2.92C28.0378 1.64 29.5311 1 31.3978 1H37.0778C38.9445 1 40.4111 1.64 41.4778 2.92C42.5978 4.14667 43.1578 5.88 43.1578 8.12V10.36C43.1578 11.0533 42.9445 11.4 42.5178 11.4H41.9578C41.4778 11.4 41.2378 11.0533 41.2378 10.36V8.12C41.2378 6.57333 40.8911 5.37333 40.1978 4.52C39.5045 3.61333 38.4645 3.16 37.0778 3.16H31.3978C30.0111 3.16 28.9711 3.61333 28.2778 4.52C27.5845 5.37333 27.2378 6.57333 27.2378 8.12V26.12C27.2378 27.6667 27.5845 28.8933 28.2778 29.8C28.9711 30.7067 30.0111 31.16 31.3978 31.16H37.0778C38.4645 31.16 39.5045 30.7067 40.1978 29.8C40.8911 28.8933 41.2378 27.6667 41.2378 26.12V23.88C41.2378 23.2933 41.4778 23 41.9578 23H42.5178C42.9445 23 43.1578 23.2933 43.1578 23.88V26.2C43.1578 30.9467 41.1311 33.32 37.0778 33.32Z" fill="#C8D0DA"/>
<path d="M11.52 33.32H6.08C4.21333 33.32 2.72 32.7333 1.6 31.56C0.533333 30.3867 0 28.6 0 26.2V8.12C0 5.88 0.533333 4.14667 1.6 2.92C2.72 1.64 4.21333 1 6.08 1H11.52C13.3867 1 14.88 1.64 16 2.92C17.12 4.2 17.68 5.93333 17.68 8.12V26.2C17.68 28.6 17.1467 30.3867 16.08 31.56C15.0133 32.7333 13.4933 33.32 11.52 33.32ZM15.68 8.12C15.68 6.57333 15.3333 5.37333 14.64 4.52C13.9467 3.61333 12.9067 3.16 11.52 3.16H6.08C4.69333 3.16 3.65333 3.61333 2.96 4.52C2.26667 5.37333 1.92 6.57333 1.92 8.12V26.12C1.92 27.6667 2.26667 28.8933 2.96 29.8C3.65333 30.7067 4.69333 31.16 6.08 31.16H11.52C12.9067 31.16 13.9467 30.7067 14.64 29.8C15.3333 28.8933 15.68 27.6667 15.68 26.12V8.12Z" fill="#C8D0DA"/>
<path d="M210.178 24.3681C210.146 24.4321 210.114 24.4641 210.082 24.4641C210.082 24.4961 210.034 24.5121 209.938 24.5121H207.394C207.266 24.5121 207.154 24.4641 207.058 24.3681C206.962 24.2721 206.914 24.1121 206.914 23.8881V23.5521C206.914 23.2961 206.946 23.1201 207.01 23.0241C207.202 22.8961 207.33 22.8321 207.394 22.8321H209.218V2.04807H207.394C207.298 2.04807 207.186 1.98407 207.058 1.85607C206.962 1.76007 206.914 1.58407 206.914 1.32807V1.04007C206.914 0.784069 206.962 0.608068 207.058 0.512068C207.154 0.384068 207.266 0.320068 207.394 0.320068H209.938C210.098 0.320068 210.194 0.384068 210.226 0.512068C210.322 0.800068 210.37 0.992068 210.37 1.08807V23.8401C210.37 23.9681 210.306 24.1441 210.178 24.3681Z" fill="#5A5A5A"/>
<path d="M199.288 21.1999H196.504C195.352 21.1999 194.424 20.8479 193.72 20.1439C193.016 19.4399 192.664 18.3839 192.664 16.9759V14.8639C192.664 13.5519 193.16 12.3999 194.152 11.4079C193.608 10.9279 193.224 10.4159 193 9.87186C192.776 9.29586 192.664 8.65586 192.664 7.95186V6.03186C192.664 4.62386 193.016 3.56786 193.72 2.86386C194.424 2.15986 195.352 1.80786 196.504 1.80786H199.288C200.44 1.80786 201.368 2.15986 202.072 2.86386C202.776 3.56786 203.128 4.62386 203.128 6.03186V7.95186C203.128 8.68786 203.016 9.32786 202.792 9.87186C202.568 10.4159 202.184 10.9279 201.64 11.4079C202.632 12.3999 203.128 13.5519 203.128 14.8639V16.9759C203.128 18.3839 202.776 19.4399 202.072 20.1439C201.368 20.8479 200.44 21.1999 199.288 21.1999ZM201.688 6.03186C201.688 4.27186 200.888 3.39186 199.288 3.39186H196.504C194.936 3.39186 194.152 4.27186 194.152 6.03186V7.95186C194.152 9.77586 194.936 10.6879 196.504 10.6879H199.288C200.888 10.6879 201.688 9.77586 201.688 7.95186V6.03186ZM201.688 14.9119C201.688 13.1199 200.888 12.2239 199.288 12.2239H196.504C194.936 12.2239 194.152 13.1199 194.152 14.9119V16.9759C194.152 18.7359 194.936 19.6159 196.504 19.6159H199.288C200.888 19.6159 201.688 18.7359 201.688 16.9759V14.9119Z" fill="#5A5A5A"/>
<path d="M188.664 24.3681C188.568 24.4641 188.472 24.5121 188.376 24.5121H185.832C185.544 24.5121 185.4 24.2881 185.4 23.8401V1.08807C185.4 0.576068 185.544 0.320068 185.832 0.320068H188.376C188.504 0.320068 188.616 0.384068 188.712 0.512068C188.808 0.608068 188.856 0.784069 188.856 1.04007V1.32807C188.856 1.55207 188.792 1.72807 188.664 1.85607C188.568 1.98407 188.472 2.04807 188.376 2.04807H186.504V22.8321H188.376C188.504 22.8321 188.6 22.8641 188.664 22.9281L188.712 22.9761C188.808 23.2321 188.856 23.4241 188.856 23.5521V23.8881C188.856 24.0161 188.792 24.1761 188.664 24.3681Z" fill="#5A5A5A"/>
</svg>
