<svg width="25" height="25" viewBox="0 0 25 25" fill="none" xmlns="http://www.w3.org/2000/svg">
<path d="M24.7777 24.048C24.7457 24.112 24.7137 24.144 24.6817 24.144C24.6817 24.176 24.6337 24.192 24.5377 24.192H21.9937C21.8657 24.192 21.7537 24.144 21.6577 24.048C21.5617 23.952 21.5137 23.792 21.5137 23.568V23.232C21.5137 22.976 21.5457 22.8 21.6097 22.704C21.8017 22.576 21.9297 22.512 21.9937 22.512H23.8177V1.728H21.9937C21.8977 1.728 21.7857 1.664 21.6577 1.536C21.5617 1.44 21.5137 1.264 21.5137 1.008V0.720001C21.5137 0.464001 21.5617 0.287999 21.6577 0.191999C21.7537 0.0639992 21.8657 0 21.9937 0H24.5377C24.6977 0 24.7937 0.0639992 24.8257 0.191999C24.9217 0.48 24.9697 0.672 24.9697 0.768V23.52C24.9697 23.648 24.9057 23.824 24.7777 24.048Z" fill="white"/>
<path d="M13.8877 20.8798H11.1037C9.95167 20.8798 9.02367 20.5278 8.31967 19.8238C7.61567 19.1198 7.26367 18.0638 7.26367 16.6558V14.5438C7.26367 13.2318 7.75967 12.0798 8.75167 11.0878C8.20767 10.6078 7.82367 10.0958 7.59967 9.55179C7.37567 8.97579 7.26367 8.33579 7.26367 7.63179V5.71179C7.26367 4.30379 7.61567 3.24779 8.31967 2.54379C9.02367 1.83979 9.95167 1.48779 11.1037 1.48779H13.8877C15.0397 1.48779 15.9677 1.83979 16.6717 2.54379C17.3757 3.24779 17.7277 4.30379 17.7277 5.71179V7.63179C17.7277 8.36779 17.6157 9.00779 17.3917 9.55179C17.1677 10.0958 16.7837 10.6078 16.2397 11.0878C17.2317 12.0798 17.7277 13.2318 17.7277 14.5438V16.6558C17.7277 18.0638 17.3757 19.1198 16.6717 19.8238C15.9677 20.5278 15.0397 20.8798 13.8877 20.8798ZM16.2877 5.71179C16.2877 3.95179 15.4877 3.07179 13.8877 3.07179H11.1037C9.53567 3.07179 8.75167 3.95179 8.75167 5.71179V7.63179C8.75167 9.45579 9.53567 10.3678 11.1037 10.3678H13.8877C15.4877 10.3678 16.2877 9.45579 16.2877 7.63179V5.71179ZM16.2877 14.5918C16.2877 12.7998 15.4877 11.9038 13.8877 11.9038H11.1037C9.53567 11.9038 8.75167 12.7998 8.75167 14.5918V16.6558C8.75167 18.4158 9.53567 19.2958 11.1037 19.2958H13.8877C15.4877 19.2958 16.2877 18.4158 16.2877 16.6558V14.5918Z" fill="white"/>
<path d="M3.264 24.048C3.168 24.144 3.072 24.192 2.976 24.192H0.432C0.144 24.192 0 23.968 0 23.52V0.768C0 0.256 0.144 0 0.432 0H2.976C3.104 0 3.216 0.0639992 3.312 0.191999C3.408 0.287999 3.456 0.464001 3.456 0.720001V1.008C3.456 1.232 3.392 1.408 3.264 1.536C3.168 1.664 3.072 1.728 2.976 1.728H1.104V22.512H2.976C3.104 22.512 3.2 22.544 3.264 22.608L3.312 22.656C3.408 22.912 3.456 23.104 3.456 23.232V23.568C3.456 23.696 3.392 23.856 3.264 24.048Z" fill="white"/>
</svg>
