<svg width="178" height="33" viewBox="0 0 178 33" fill="none" xmlns="http://www.w3.org/2000/svg">
<rect x="7.19092" y="17.5574" width="5.06902" height="2.10823" transform="rotate(-62.054 7.19092 17.5574)" fill="white"/>
<path d="M177.333 32.1598V32.5598C177.333 32.7731 177.173 32.8798 176.853 32.8798H175.973C175.653 32.8798 175.413 32.7198 175.253 32.3998L170.053 19.6798H162.293V32.0798C162.293 32.6131 162.026 32.8798 161.493 32.8798H161.013C160.48 32.8798 160.213 32.6131 160.213 32.0798V1.35981C160.213 0.826481 160.48 0.559814 161.013 0.559814H170.613C172.586 0.559814 174.106 1.14648 175.173 2.31981C176.24 3.49315 176.773 5.27981 176.773 7.67981V12.4798C176.773 14.1865 176.426 15.5998 175.733 16.7198C175.04 17.8398 173.813 18.7998 172.053 19.5998L177.253 31.7598C177.253 31.9198 177.28 32.0531 177.333 32.1598ZM174.853 7.67981C174.853 6.13315 174.48 4.90648 173.733 3.99981C173.04 3.09315 172 2.63981 170.613 2.63981H162.293V17.3598H170.613C172 17.3598 173.04 16.9331 173.733 16.0798C174.48 15.2265 174.853 14.0265 174.853 12.4798V7.67981Z" fill="white"/>
<path d="M153.23 32.8798H136.99C136.883 32.8798 136.75 32.8265 136.59 32.7198C136.43 32.5598 136.35 32.3465 136.35 32.0798V31.1998C136.35 30.9865 136.403 30.7465 136.51 30.4798L151.15 2.71981H137.47C136.99 2.71981 136.75 2.47981 136.75 1.99981V1.35981C136.75 0.826481 136.99 0.559814 137.47 0.559814H152.75C153.23 0.559814 153.47 0.826481 153.47 1.35981V2.23981C153.47 2.34648 153.443 2.47981 153.39 2.63981C153.39 2.79981 153.363 2.90648 153.31 2.95981L138.67 30.7198H153.23C153.71 30.7198 153.95 30.9598 153.95 31.4398V32.0798C153.95 32.4531 153.87 32.6931 153.71 32.7998C153.603 32.8531 153.443 32.8798 153.23 32.8798Z" fill="white"/>
<path d="M129.687 32.8798H129.047C128.673 32.8798 128.487 32.5865 128.487 31.9998V1.43981C128.487 1.01314 128.513 0.773147 128.567 0.719814C128.673 0.613147 128.833 0.559814 129.047 0.559814H129.687C129.9 0.559814 130.06 0.613147 130.167 0.719814C130.273 0.773147 130.327 1.01314 130.327 1.43981V31.9998C130.327 32.4265 130.273 32.6931 130.167 32.7998C130.06 32.8531 129.9 32.8798 129.687 32.8798Z" fill="white"/>
<path d="M120.13 32.8798H119.49C119.01 32.8798 118.77 32.6131 118.77 32.0798V5.27981L110.37 25.4398C110.21 25.8131 109.89 25.9998 109.41 25.9998H108.69C108.263 25.9998 107.97 25.8131 107.81 25.4398L99.33 5.03981V32.0798C99.33 32.6131 99.1167 32.8798 98.69 32.8798H98.05C97.5167 32.8798 97.25 32.6131 97.25 32.0798V1.43981C97.25 0.853145 97.5167 0.559814 98.05 0.559814H99.25C99.5167 0.559814 99.73 0.693146 99.89 0.959812L109.09 23.0398L118.13 1.03981C118.29 0.719811 118.53 0.559814 118.85 0.559814H120.13C120.557 0.559814 120.77 0.853145 120.77 1.43981V32.0798C120.77 32.6131 120.557 32.8798 120.13 32.8798Z" fill="white"/>
<path d="M83.292 32.8798H77.852C75.9853 32.8798 74.492 32.2931 73.372 31.1198C72.3053 29.9465 71.772 28.1598 71.772 25.7598V7.67981C71.772 5.43981 72.3053 3.70648 73.372 2.47981C74.492 1.19981 75.9853 0.559814 77.852 0.559814H83.292C85.1586 0.559814 86.652 1.19981 87.772 2.47981C88.892 3.75981 89.452 5.49315 89.452 7.67981V25.7598C89.452 28.1598 88.9186 29.9465 87.852 31.1198C86.7853 32.2931 85.2653 32.8798 83.292 32.8798ZM87.452 7.67981C87.452 6.13315 87.1053 4.93314 86.412 4.07981C85.7186 3.17314 84.6786 2.71981 83.292 2.71981H77.852C76.4653 2.71981 75.4253 3.17314 74.732 4.07981C74.0386 4.93314 73.692 6.13315 73.692 7.67981V25.6798C73.692 27.2265 74.0386 28.4532 74.732 29.3598C75.4253 30.2665 76.4653 30.7198 77.852 30.7198H83.292C84.6786 30.7198 85.7186 30.2665 86.412 29.3598C87.1053 28.4532 87.452 27.2265 87.452 25.6798V7.67981Z" fill="white"/>
<path d="M65.5488 2.71981H58.8288V32.0798C58.8288 32.2398 58.7488 32.4265 58.5888 32.6398C58.4821 32.7998 58.3221 32.8798 58.1087 32.8798H57.6287C57.4154 32.8798 57.2287 32.7998 57.0687 32.6398C56.9621 32.4265 56.9088 32.2398 56.9088 32.0798V2.71981H50.1888C50.0288 2.71981 49.8688 2.66648 49.7088 2.55981C49.5488 2.45315 49.4688 2.26648 49.4688 1.99981V1.35981C49.4688 0.826481 49.7088 0.559814 50.1888 0.559814H65.5488C65.9754 0.559814 66.1888 0.826481 66.1888 1.35981V1.99981C66.1888 2.47981 65.9754 2.71981 65.5488 2.71981Z" fill="white"/>
<path d="M37.6779 32.8798H31.9979C30.0246 32.8798 28.5046 32.2931 27.4379 31.1198C26.3712 29.9465 25.8379 28.1598 25.8379 25.7598V7.67981C25.8379 5.49315 26.3979 3.75981 27.5179 2.47981C28.6379 1.19981 30.1312 0.559814 31.9979 0.559814H37.6779C39.5446 0.559814 41.0112 1.19981 42.0779 2.47981C43.1979 3.70648 43.7579 5.43981 43.7579 7.67981V9.91982C43.7579 10.6131 43.5446 10.9598 43.1179 10.9598H42.5579C42.0779 10.9598 41.8379 10.6131 41.8379 9.91982V7.67981C41.8379 6.13315 41.4912 4.93314 40.7979 4.07981C40.1046 3.17314 39.0646 2.71981 37.6779 2.71981H31.9979C30.6112 2.71981 29.5712 3.17314 28.8779 4.07981C28.1846 4.93314 27.8379 6.13315 27.8379 7.67981V25.6798C27.8379 27.2265 28.1846 28.4532 28.8779 29.3598C29.5712 30.2665 30.6112 30.7198 31.9979 30.7198H37.6779C39.0646 30.7198 40.1046 30.2665 40.7979 29.3598C41.4912 28.4532 41.8379 27.2265 41.8379 25.6798V23.4398C41.8379 22.8531 42.0779 22.5598 42.5579 22.5598H43.1179C43.5446 22.5598 43.7579 22.8531 43.7579 23.4398V25.7598C43.7579 30.5065 41.7312 32.8798 37.6779 32.8798Z" fill="white"/>
<path d="M12.1201 32.8798H6.6801C4.81343 32.8798 3.3201 32.2931 2.2001 31.1198C1.13343 29.9465 0.600098 28.1598 0.600098 25.7598V7.67981C0.600098 5.43981 1.13343 3.70648 2.2001 2.47981C3.3201 1.19981 4.81343 0.559814 6.6801 0.559814H12.1201C13.9868 0.559814 15.4801 1.19981 16.6001 2.47981C17.7201 3.75981 18.2801 5.49315 18.2801 7.67981V25.7598C18.2801 28.1598 17.7468 29.9465 16.6801 31.1198C15.6134 32.2931 14.0934 32.8798 12.1201 32.8798ZM16.2801 7.67981C16.2801 6.13315 15.9334 4.93314 15.2401 4.07981C14.5468 3.17314 13.5068 2.71981 12.1201 2.71981H6.6801C5.29343 2.71981 4.25343 3.17314 3.5601 4.07981C2.86676 4.93314 2.5201 6.13315 2.5201 7.67981V25.6798C2.5201 27.2265 2.86676 28.4532 3.5601 29.3598C4.25343 30.2665 5.29343 30.7198 6.6801 30.7198H12.1201C13.5068 30.7198 14.5468 30.2665 15.2401 29.3598C15.9334 28.4532 16.2801 27.2265 16.2801 25.6798V7.67981Z" fill="white"/>
</svg>
