<svg width="100" height="100" viewBox="0 0 100 100" fill="none" xmlns="http://www.w3.org/2000/svg">
<path d="M99.9999 75.7813C99.9999 64.2875 91.9904 54.6703 81.2499 52.19C79.4913 51.7844 77.6632 51.5625 75.7811 51.5625C75.2553 51.5625 74.7359 51.5852 74.2187 51.6181C62.4819 52.3664 53.0218 61.4695 51.7203 73.047C51.6195 73.9447 51.5625 74.8563 51.5625 75.7813C51.5625 77.5234 51.7507 79.2212 52.0999 80.8594C54.4344 91.7962 64.1476 100 75.7811 100C89.1569 100 99.9999 89.1571 99.9999 75.7813ZM75.7811 91.797C66.9359 91.797 59.7654 84.6266 59.7654 75.7813C59.7654 66.936 66.9359 59.7656 75.7811 59.7656C84.6264 59.7656 91.7968 66.936 91.7968 75.7813C91.7968 84.6266 84.6264 91.797 75.7811 91.797Z" fill="white"/>
<path d="M78.9062 64.8438H73.4375V73.4375H64.8438V78.9062H78.9062V73.4375V64.8438Z" fill="white"/>
<path d="M17.9687 0C16.4608 0 15.2344 1.22663 15.2344 2.73431V8.98431V15.625C15.2344 17.1328 16.4608 18.3593 17.9687 18.3593H20.3125C21.8203 18.3593 23.0468 17.1327 23.0468 15.625V8.98431V2.73431C23.0468 1.22663 21.8203 0 20.3123 0H17.9687Z" fill="white"/>
<path d="M60.9374 0C59.4296 0 58.2031 1.22663 58.2031 2.73431V8.98431V15.625C58.2031 17.1328 59.4298 18.3593 60.9374 18.3593H63.2812C64.7891 18.3593 66.0155 17.1327 66.0155 15.625V8.98431V2.73431C66.0155 1.22663 64.7889 0 63.2811 0H60.9374Z" fill="white"/>
<path d="M6.25 80.8594H44.9219C44.5407 78.964 44.3382 77.0055 44.3382 75.0001C44.3382 74.343 44.3672 73.693 44.4093 73.047H11.7188C9.12974 73.047 7.03121 70.9484 7.03121 68.3594V30.8594H74.2188V45.354C74.7359 45.3274 75.257 45.3126 75.7812 45.3126C77.65 45.3126 79.4757 45.4939 81.25 45.8259V15.2344C81.25 11.7827 78.4516 8.98438 75 8.98438H69.9219V15.6251C69.9219 19.2868 66.9431 22.2657 63.2812 22.2657H60.9374C57.2757 22.2657 54.2967 19.2868 54.2967 15.6251V8.98438H26.9531V15.6251C26.9531 19.2868 23.9742 22.2657 20.3124 22.2657H17.9686C14.3069 22.2657 11.3279 19.2868 11.3279 15.6251V8.98438H6.25C2.79837 8.98438 0 11.7829 0 15.2344V74.6094C0 78.061 2.79837 80.8594 6.25 80.8594Z" fill="white"/>
<path d="M22.0219 48.7802C25.447 48.7802 28.2236 46.0037 28.2236 42.5786C28.2236 39.1535 25.447 36.377 22.0219 36.377C18.5969 36.377 15.8203 39.1535 15.8203 42.5786C15.8203 46.0037 18.5969 48.7802 22.0219 48.7802Z" fill="white"/>
<path d="M40.625 48.7802C44.05 48.7802 46.8266 46.0037 46.8266 42.5786C46.8266 39.1535 44.05 36.377 40.625 36.377C37.1999 36.377 34.4233 39.1535 34.4233 42.5786C34.4233 46.0037 37.1999 48.7802 40.625 48.7802Z" fill="white"/>
<path d="M59.2285 48.7802C62.6536 48.7802 65.4301 46.0037 65.4301 42.5786C65.4301 39.1535 62.6536 36.377 59.2285 36.377C55.8034 36.377 53.0269 39.1535 53.0269 42.5786C53.0269 46.0037 55.8034 48.7802 59.2285 48.7802Z" fill="white"/>
<path d="M40.6248 67.5299C44.0498 67.5299 46.8263 64.7534 46.8263 61.3284C46.8263 57.9034 44.0498 55.127 40.6248 55.127C37.1998 55.127 34.4233 57.9034 34.4233 61.3284C34.4233 64.7534 37.1998 67.5299 40.6248 67.5299Z" fill="white"/>
<path d="M22.0218 67.5299C25.4468 67.5299 28.2233 64.7534 28.2233 61.3284C28.2233 57.9034 25.4468 55.127 22.0218 55.127C18.5968 55.127 15.8203 57.9034 15.8203 61.3284C15.8203 64.7534 18.5968 67.5299 22.0218 67.5299Z" fill="white"/>
</svg>
