<svg width="214" height="33" viewBox="0 0 214 33" fill="none" xmlns="http://www.w3.org/2000/svg">
<path d="M213.778 24.048C213.746 24.112 213.714 24.144 213.682 24.144C213.682 24.176 213.634 24.192 213.538 24.192H210.994C210.866 24.192 210.754 24.144 210.658 24.048C210.562 23.952 210.514 23.792 210.514 23.568V23.232C210.514 22.976 210.546 22.8 210.61 22.704C210.802 22.576 210.93 22.512 210.994 22.512H212.818V1.728H210.994C210.898 1.728 210.786 1.664 210.658 1.536C210.562 1.44 210.514 1.264 210.514 1.008V0.720001C210.514 0.464001 210.562 0.287999 210.658 0.191999C210.754 0.0639992 210.866 0 210.994 0H213.538C213.698 0 213.794 0.0639992 213.826 0.191999C213.922 0.48 213.97 0.672 213.97 0.768V23.52C213.97 23.648 213.906 23.824 213.778 24.048Z" fill="#5A5A5A"/>
<path d="M202.888 20.8798H200.104C198.952 20.8798 198.024 20.5278 197.32 19.8238C196.616 19.1198 196.264 18.0638 196.264 16.6558V14.5438C196.264 13.2318 196.76 12.0798 197.752 11.0878C197.208 10.6078 196.824 10.0958 196.6 9.55179C196.376 8.97579 196.264 8.33579 196.264 7.63179V5.71179C196.264 4.30379 196.616 3.24779 197.32 2.54379C198.024 1.83979 198.952 1.48779 200.104 1.48779H202.888C204.04 1.48779 204.968 1.83979 205.672 2.54379C206.376 3.24779 206.728 4.30379 206.728 5.71179V7.63179C206.728 8.36779 206.616 9.00779 206.392 9.55179C206.168 10.0958 205.784 10.6078 205.24 11.0878C206.232 12.0798 206.728 13.2318 206.728 14.5438V16.6558C206.728 18.0638 206.376 19.1198 205.672 19.8238C204.968 20.5278 204.04 20.8798 202.888 20.8798ZM205.288 5.71179C205.288 3.95179 204.488 3.07179 202.888 3.07179H200.104C198.536 3.07179 197.752 3.95179 197.752 5.71179V7.63179C197.752 9.45579 198.536 10.3678 200.104 10.3678H202.888C204.488 10.3678 205.288 9.45579 205.288 7.63179V5.71179ZM205.288 14.5918C205.288 12.7998 204.488 11.9038 202.888 11.9038H200.104C198.536 11.9038 197.752 12.7998 197.752 14.5918V16.6558C197.752 18.4158 198.536 19.2958 200.104 19.2958H202.888C204.488 19.2958 205.288 18.4158 205.288 16.6558V14.5918Z" fill="#5A5A5A"/>
<path d="M192.264 24.048C192.168 24.144 192.072 24.192 191.976 24.192H189.432C189.144 24.192 189 23.968 189 23.52V0.768C189 0.256 189.144 0 189.432 0H191.976C192.104 0 192.216 0.0639992 192.312 0.191999C192.408 0.287999 192.456 0.464001 192.456 0.720001V1.008C192.456 1.232 192.392 1.408 192.264 1.536C192.168 1.664 192.072 1.728 191.976 1.728H190.104V22.512H191.976C192.104 22.512 192.2 22.544 192.264 22.608L192.312 22.656C192.408 22.912 192.456 23.104 192.456 23.232V23.568C192.456 23.696 192.392 23.856 192.264 24.048Z" fill="#5A5A5A"/>
<rect x="7.19092" y="17.5574" width="5.06902" height="2.10823" transform="rotate(-62.054 7.19092 17.5574)" fill="white"/>
<path d="M177.333 32.1598V32.5598C177.333 32.7731 177.173 32.8798 176.853 32.8798H175.973C175.653 32.8798 175.413 32.7198 175.253 32.3998L170.053 19.6798H162.293V32.0798C162.293 32.6131 162.026 32.8798 161.493 32.8798H161.013C160.48 32.8798 160.213 32.6131 160.213 32.0798V1.35981C160.213 0.826481 160.48 0.559814 161.013 0.559814H170.613C172.586 0.559814 174.106 1.14648 175.173 2.31981C176.24 3.49315 176.773 5.27981 176.773 7.67981V12.4798C176.773 14.1865 176.426 15.5998 175.733 16.7198C175.04 17.8398 173.813 18.7998 172.053 19.5998L177.253 31.7598C177.253 31.9198 177.28 32.0531 177.333 32.1598ZM174.853 7.67981C174.853 6.13315 174.48 4.90648 173.733 3.99981C173.04 3.09315 172 2.63981 170.613 2.63981H162.293V17.3598H170.613C172 17.3598 173.04 16.9331 173.733 16.0798C174.48 15.2265 174.853 14.0265 174.853 12.4798V7.67981Z" fill="white"/>
<path d="M153.23 32.8798H136.99C136.883 32.8798 136.75 32.8265 136.59 32.7198C136.43 32.5598 136.35 32.3465 136.35 32.0798V31.1998C136.35 30.9865 136.403 30.7465 136.51 30.4798L151.15 2.71981H137.47C136.99 2.71981 136.75 2.47981 136.75 1.99981V1.35981C136.75 0.826481 136.99 0.559814 137.47 0.559814H152.75C153.23 0.559814 153.47 0.826481 153.47 1.35981V2.23981C153.47 2.34648 153.443 2.47981 153.39 2.63981C153.39 2.79981 153.363 2.90648 153.31 2.95981L138.67 30.7198H153.23C153.71 30.7198 153.95 30.9598 153.95 31.4398V32.0798C153.95 32.4531 153.87 32.6931 153.71 32.7998C153.603 32.8531 153.443 32.8798 153.23 32.8798Z" fill="white"/>
<path d="M129.687 32.8798H129.047C128.673 32.8798 128.487 32.5865 128.487 31.9998V1.43981C128.487 1.01314 128.513 0.773147 128.567 0.719814C128.673 0.613147 128.833 0.559814 129.047 0.559814H129.687C129.9 0.559814 130.06 0.613147 130.167 0.719814C130.273 0.773147 130.327 1.01314 130.327 1.43981V31.9998C130.327 32.4265 130.273 32.6931 130.167 32.7998C130.06 32.8531 129.9 32.8798 129.687 32.8798Z" fill="white"/>
<path d="M120.13 32.8798H119.49C119.01 32.8798 118.77 32.6131 118.77 32.0798V5.27981L110.37 25.4398C110.21 25.8131 109.89 25.9998 109.41 25.9998H108.69C108.263 25.9998 107.97 25.8131 107.81 25.4398L99.33 5.03981V32.0798C99.33 32.6131 99.1167 32.8798 98.69 32.8798H98.05C97.5167 32.8798 97.25 32.6131 97.25 32.0798V1.43981C97.25 0.853145 97.5167 0.559814 98.05 0.559814H99.25C99.5167 0.559814 99.73 0.693146 99.89 0.959812L109.09 23.0398L118.13 1.03981C118.29 0.719811 118.53 0.559814 118.85 0.559814H120.13C120.557 0.559814 120.77 0.853145 120.77 1.43981V32.0798C120.77 32.6131 120.557 32.8798 120.13 32.8798Z" fill="white"/>
<path d="M83.292 32.8798H77.852C75.9853 32.8798 74.492 32.2931 73.372 31.1198C72.3053 29.9465 71.772 28.1598 71.772 25.7598V7.67981C71.772 5.43981 72.3053 3.70648 73.372 2.47981C74.492 1.19981 75.9853 0.559814 77.852 0.559814H83.292C85.1586 0.559814 86.652 1.19981 87.772 2.47981C88.892 3.75981 89.452 5.49315 89.452 7.67981V25.7598C89.452 28.1598 88.9186 29.9465 87.852 31.1198C86.7853 32.2931 85.2653 32.8798 83.292 32.8798ZM87.452 7.67981C87.452 6.13315 87.1053 4.93314 86.412 4.07981C85.7186 3.17314 84.6786 2.71981 83.292 2.71981H77.852C76.4653 2.71981 75.4253 3.17314 74.732 4.07981C74.0386 4.93314 73.692 6.13315 73.692 7.67981V25.6798C73.692 27.2265 74.0386 28.4532 74.732 29.3598C75.4253 30.2665 76.4653 30.7198 77.852 30.7198H83.292C84.6786 30.7198 85.7186 30.2665 86.412 29.3598C87.1053 28.4532 87.452 27.2265 87.452 25.6798V7.67981Z" fill="white"/>
<path d="M65.5488 2.71981H58.8288V32.0798C58.8288 32.2398 58.7488 32.4265 58.5888 32.6398C58.4821 32.7998 58.3221 32.8798 58.1087 32.8798H57.6287C57.4154 32.8798 57.2287 32.7998 57.0687 32.6398C56.9621 32.4265 56.9088 32.2398 56.9088 32.0798V2.71981H50.1888C50.0288 2.71981 49.8688 2.66648 49.7088 2.55981C49.5488 2.45315 49.4688 2.26648 49.4688 1.99981V1.35981C49.4688 0.826481 49.7088 0.559814 50.1888 0.559814H65.5488C65.9754 0.559814 66.1888 0.826481 66.1888 1.35981V1.99981C66.1888 2.47981 65.9754 2.71981 65.5488 2.71981Z" fill="white"/>
<path d="M37.6779 32.8798H31.9979C30.0246 32.8798 28.5046 32.2931 27.4379 31.1198C26.3712 29.9465 25.8379 28.1598 25.8379 25.7598V7.67981C25.8379 5.49315 26.3979 3.75981 27.5179 2.47981C28.6379 1.19981 30.1312 0.559814 31.9979 0.559814H37.6779C39.5446 0.559814 41.0112 1.19981 42.0779 2.47981C43.1979 3.70648 43.7579 5.43981 43.7579 7.67981V9.91982C43.7579 10.6131 43.5446 10.9598 43.1179 10.9598H42.5579C42.0779 10.9598 41.8379 10.6131 41.8379 9.91982V7.67981C41.8379 6.13315 41.4912 4.93314 40.7979 4.07981C40.1046 3.17314 39.0646 2.71981 37.6779 2.71981H31.9979C30.6112 2.71981 29.5712 3.17314 28.8779 4.07981C28.1846 4.93314 27.8379 6.13315 27.8379 7.67981V25.6798C27.8379 27.2265 28.1846 28.4532 28.8779 29.3598C29.5712 30.2665 30.6112 30.7198 31.9979 30.7198H37.6779C39.0646 30.7198 40.1046 30.2665 40.7979 29.3598C41.4912 28.4532 41.8379 27.2265 41.8379 25.6798V23.4398C41.8379 22.8531 42.0779 22.5598 42.5579 22.5598H43.1179C43.5446 22.5598 43.7579 22.8531 43.7579 23.4398V25.7598C43.7579 30.5065 41.7312 32.8798 37.6779 32.8798Z" fill="white"/>
<path d="M12.1201 32.8798H6.6801C4.81343 32.8798 3.3201 32.2931 2.2001 31.1198C1.13343 29.9465 0.600098 28.1598 0.600098 25.7598V7.67981C0.600098 5.43981 1.13343 3.70648 2.2001 2.47981C3.3201 1.19981 4.81343 0.559814 6.6801 0.559814H12.1201C13.9868 0.559814 15.4801 1.19981 16.6001 2.47981C17.7201 3.75981 18.2801 5.49315 18.2801 7.67981V25.7598C18.2801 28.1598 17.7468 29.9465 16.6801 31.1198C15.6134 32.2931 14.0934 32.8798 12.1201 32.8798ZM16.2801 7.67981C16.2801 6.13315 15.9334 4.93314 15.2401 4.07981C14.5468 3.17314 13.5068 2.71981 12.1201 2.71981H6.6801C5.29343 2.71981 4.25343 3.17314 3.5601 4.07981C2.86676 4.93314 2.5201 6.13315 2.5201 7.67981V25.6798C2.5201 27.2265 2.86676 28.4532 3.5601 29.3598C4.25343 30.2665 5.29343 30.7198 6.6801 30.7198H12.1201C13.5068 30.7198 14.5468 30.2665 15.2401 29.3598C15.9334 28.4532 16.2801 27.2265 16.2801 25.6798V7.67981Z" fill="white"/>
</svg>
