<svg width="175" height="33" viewBox="0 0 175 33" fill="none" xmlns="http://www.w3.org/2000/svg">
<path d="M173.613 32.9999H160.813C160.386 32.9999 160.173 32.7333 160.173 32.1999V1.55993C160.173 0.973262 160.386 0.679932 160.813 0.679932H173.613C174.04 0.679932 174.253 0.946598 174.253 1.47993V2.11993C174.253 2.3866 174.173 2.57326 174.013 2.67993C173.853 2.7866 173.72 2.83993 173.613 2.83993H162.013V15.3999H172.573C172.68 15.3999 172.813 15.4799 172.973 15.6399C173.133 15.7466 173.213 15.9599 173.213 16.2799V16.8399C173.213 17.3733 173 17.6399 172.573 17.6399H162.013V30.8399H173.613C174.04 30.8399 174.253 31.0799 174.253 31.5599V32.1999C174.253 32.4666 174.173 32.6799 174.013 32.8399C173.853 32.9466 173.72 32.9999 173.613 32.9999Z" fill="#C8D0DA"/>
<path d="M152.63 32.9999H136.39C136.283 32.9999 136.15 32.9466 135.99 32.8399C135.83 32.6799 135.75 32.4666 135.75 32.1999V31.3199C135.75 31.1066 135.803 30.8666 135.91 30.5999L150.55 2.83993H136.87C136.39 2.83993 136.15 2.59993 136.15 2.11993V1.47993C136.15 0.946598 136.39 0.679932 136.87 0.679932H152.15C152.63 0.679932 152.87 0.946598 152.87 1.47993V2.35993C152.87 2.4666 152.843 2.59993 152.79 2.75993C152.79 2.91993 152.763 3.0266 152.71 3.07993L138.07 30.8399H152.63C153.11 30.8399 153.35 31.0799 153.35 31.5599V32.1999C153.35 32.5733 153.27 32.8133 153.11 32.9199C153.003 32.9733 152.843 32.9999 152.63 32.9999Z" fill="#C8D0DA"/>
<path d="M129.087 32.9999H128.447C128.073 32.9999 127.887 32.7066 127.887 32.1199V1.55993C127.887 1.13326 127.913 0.893264 127.967 0.839931C128.073 0.733265 128.233 0.679932 128.447 0.679932H129.087C129.3 0.679932 129.46 0.733265 129.567 0.839931C129.673 0.893264 129.727 1.13326 129.727 1.55993V32.1199C129.727 32.5466 129.673 32.8133 129.567 32.9199C129.46 32.9733 129.3 32.9999 129.087 32.9999Z" fill="#C8D0DA"/>
<path d="M119.53 32.9999H118.89C118.41 32.9999 118.17 32.7333 118.17 32.1999V5.39993L109.77 25.5599C109.61 25.9333 109.29 26.1199 108.81 26.1199H108.09C107.663 26.1199 107.37 25.9333 107.21 25.5599L98.7299 5.15993V32.1999C98.7299 32.7333 98.5166 32.9999 98.0899 32.9999H97.4499C96.9166 32.9999 96.6499 32.7333 96.6499 32.1999V1.55993C96.6499 0.973262 96.9166 0.679932 97.4499 0.679932H98.6499C98.9166 0.679932 99.1299 0.813263 99.2899 1.07993L108.49 23.1599L117.53 1.15993C117.69 0.839928 117.93 0.679932 118.25 0.679932H119.53C119.957 0.679932 120.17 0.973262 120.17 1.55993V32.1999C120.17 32.7333 119.957 32.9999 119.53 32.9999Z" fill="#C8D0DA"/>
<path d="M82.6919 32.9999H77.2519C75.3852 32.9999 73.8919 32.4133 72.7719 31.2399C71.7052 30.0666 71.1719 28.2799 71.1719 25.8799V7.79993C71.1719 5.55993 71.7052 3.8266 72.7719 2.59993C73.8919 1.31993 75.3852 0.679932 77.2519 0.679932H82.6919C84.5585 0.679932 86.0519 1.31993 87.1719 2.59993C88.2919 3.87993 88.8519 5.61327 88.8519 7.79993V25.8799C88.8519 28.2799 88.3185 30.0666 87.2519 31.2399C86.1852 32.4133 84.6652 32.9999 82.6919 32.9999ZM86.8519 7.79993C86.8519 6.25326 86.5052 5.05326 85.8119 4.19993C85.1185 3.29326 84.0785 2.83993 82.6919 2.83993H77.2519C75.8652 2.83993 74.8252 3.29326 74.1319 4.19993C73.4385 5.05326 73.0919 6.25326 73.0919 7.79993V25.7999C73.0919 27.3466 73.4385 28.5733 74.1319 29.4799C74.8252 30.3866 75.8652 30.8399 77.2519 30.8399H82.6919C84.0785 30.8399 85.1185 30.3866 85.8119 29.4799C86.5052 28.5733 86.8519 27.3466 86.8519 25.7999V7.79993Z" fill="#C8D0DA"/>
<rect x="78" y="18.5334" width="4" height="1.6606" transform="rotate(-62.054 78 18.5334)" fill="#5A5A5A"/>
<path d="M64.9487 2.83993H58.2287V32.1999C58.2287 32.3599 58.1487 32.5466 57.9887 32.7599C57.882 32.9199 57.722 32.9999 57.5087 32.9999H57.0287C56.8153 32.9999 56.6287 32.9199 56.4687 32.7599C56.362 32.5466 56.3087 32.3599 56.3087 32.1999V2.83993H49.5887C49.4287 2.83993 49.2687 2.7866 49.1087 2.67993C48.9487 2.57326 48.8687 2.3866 48.8687 2.11993V1.47993C48.8687 0.946598 49.1087 0.679932 49.5887 0.679932H64.9487C65.3753 0.679932 65.5887 0.946598 65.5887 1.47993V2.11993C65.5887 2.59993 65.3753 2.83993 64.9487 2.83993Z" fill="#C8D0DA"/>
<path d="M37.0778 32.9999H31.3978C29.4245 32.9999 27.9045 32.4133 26.8378 31.2399C25.7711 30.0666 25.2378 28.2799 25.2378 25.8799V7.79993C25.2378 5.61327 25.7978 3.87993 26.9178 2.59993C28.0378 1.31993 29.5311 0.679932 31.3978 0.679932H37.0778C38.9445 0.679932 40.4111 1.31993 41.4778 2.59993C42.5978 3.8266 43.1578 5.55993 43.1578 7.79993V10.0399C43.1578 10.7333 42.9445 11.0799 42.5178 11.0799H41.9578C41.4778 11.0799 41.2378 10.7333 41.2378 10.0399V7.79993C41.2378 6.25326 40.8911 5.05326 40.1978 4.19993C39.5045 3.29326 38.4645 2.83993 37.0778 2.83993H31.3978C30.0111 2.83993 28.9711 3.29326 28.2778 4.19993C27.5845 5.05326 27.2378 6.25326 27.2378 7.79993V25.7999C27.2378 27.3466 27.5845 28.5733 28.2778 29.4799C28.9711 30.3866 30.0111 30.8399 31.3978 30.8399H37.0778C38.4645 30.8399 39.5045 30.3866 40.1978 29.4799C40.8911 28.5733 41.2378 27.3466 41.2378 25.7999V23.5599C41.2378 22.9733 41.4778 22.6799 41.9578 22.6799H42.5178C42.9445 22.6799 43.1578 22.9733 43.1578 23.5599V25.8799C43.1578 30.6266 41.1311 32.9999 37.0778 32.9999Z" fill="#C8D0DA"/>
<path d="M11.52 32.9999H6.08C4.21333 32.9999 2.72 32.4133 1.6 31.2399C0.533333 30.0666 0 28.2799 0 25.8799V7.79993C0 5.55993 0.533333 3.8266 1.6 2.59993C2.72 1.31993 4.21333 0.679932 6.08 0.679932H11.52C13.3867 0.679932 14.88 1.31993 16 2.59993C17.12 3.87993 17.68 5.61327 17.68 7.79993V25.8799C17.68 28.2799 17.1467 30.0666 16.08 31.2399C15.0133 32.4133 13.4933 32.9999 11.52 32.9999ZM15.68 7.79993C15.68 6.25326 15.3333 5.05326 14.64 4.19993C13.9467 3.29326 12.9067 2.83993 11.52 2.83993H6.08C4.69333 2.83993 3.65333 3.29326 2.96 4.19993C2.26667 5.05326 1.92 6.25326 1.92 7.79993V25.7999C1.92 27.3466 2.26667 28.5733 2.96 29.4799C3.65333 30.3866 4.69333 30.8399 6.08 30.8399H11.52C12.9067 30.8399 13.9467 30.3866 14.64 29.4799C15.3333 28.5733 15.68 27.3466 15.68 25.7999V7.79993Z" fill="#C8D0DA"/>
</svg>
